<svg width="129" height="129" xmlns="http://www.w3.org/2000/svg" xmlns:xlink="http://www.w3.org/1999/xlink" xml:space="preserve" overflow="hidden"><defs><clipPath id="clip0"><rect x="592" y="312" width="129" height="129"/></clipPath></defs><g clip-path="url(#clip0)" transform="translate(-592 -312)"><path d="M696.812 338.875 673.969 338.875 673.969 332.156C673.969 326.916 669.803 322.75 664.562 322.75L648.438 322.75C643.197 322.75 639.031 326.916 639.031 332.156L639.031 338.875 616.188 338.875C613.231 338.875 610.812 341.294 610.812 344.25L610.812 349.625 702.188 349.625 702.188 344.25C702.188 341.294 699.769 338.875 696.812 338.875ZM647.094 332.156C647.094 331.35 647.631 330.812 648.438 330.812L664.562 330.812C665.369 330.812 665.906 331.35 665.906 332.156L665.906 338.875 647.094 338.875 647.094 332.156Z" fill="#AFABAB"/><path d="M618.875 424.875C618.875 427.831 621.294 430.25 624.25 430.25L688.75 430.25C691.706 430.25 694.125 427.831 694.125 424.875L694.125 355 618.875 355 618.875 424.875ZM673.969 363.062 682.031 363.062 682.031 422.188 673.969 422.188 673.969 363.062ZM652.469 363.062 660.531 363.062 660.531 422.188 652.469 422.188 652.469 363.062ZM630.969 363.062 639.031 363.062 639.031 422.188 630.969 422.188 630.969 363.062Z" fill="#AFABAB"/></g></svg>