<svg width="96" height="96" xmlns="http://www.w3.org/2000/svg" xmlns:xlink="http://www.w3.org/1999/xlink" xml:space="preserve" overflow="hidden"><defs><clipPath id="clip0"><rect x="444" y="280" width="96" height="96"/></clipPath></defs><g clip-path="url(#clip0)" transform="translate(-444 -280)"><path d="M492 340C485.4 340 480 334.6 480 328 480 321.4 485.4 316 492 316 498.6 316 504 321.4 504 328 504 334.6 498.6 340 492 340ZM519 320.5C518.4 318.3 517.5 316.2 516.4 314.3L518.9 306.8 513.2 301.1 505.7 303.6C503.7 302.5 501.6 301.6 499.4 301L496 294 488 294 484.5 301C482.3 301.6 480.2 302.5 478.3 303.6L470.8 301.1 465.1 306.8 467.6 314.3C466.5 316.3 465.6 318.4 465 320.6L458 324 458 332 465 335.5C465.6 337.7 466.5 339.8 467.6 341.7L465.1 349.2 470.8 354.9 478.3 352.4C480.3 353.5 482.4 354.4 484.6 355L488.1 362 496.1 362 499.6 355C501.8 354.4 503.9 353.5 505.8 352.4L513.3 354.9 519 349.2 516.5 341.7C517.6 339.7 518.5 337.6 519.1 335.4L526.1 331.9 526.1 323.9 519 320.5Z" fill="#AFABAB"/></g></svg>